<svg xmlns="http://www.w3.org/2000/svg" width="540" height="100">
  <defs>
    <marker id="arrow" markerWidth="10" markerHeight="10" refX="10" refY="3" orient="auto">
      <path d="M0,0 L10,3 L0,6 Z" fill="#000" />
    </marker>
  </defs>
  <rect x="20" y="30" width="80" height="40" rx="5" ry="5" fill="#fff" stroke="#000" />
  <text x="60" y="55" text-anchor="middle" alignment-baseline="middle" font-size="12">App</text>
  <rect x="120" y="30" width="80" height="40" rx="5" ry="5" fill="#fff" stroke="#000" />
  <text x="160" y="55" text-anchor="middle" alignment-baseline="middle" font-size="12">Studio</text>
  <rect x="220" y="30" width="80" height="40" rx="5" ry="5" fill="#fff" stroke="#000" />
  <text x="260" y="55" text-anchor="middle" alignment-baseline="middle" font-size="12">Runtime</text>
  <rect x="320" y="30" width="80" height="40" rx="5" ry="5" fill="#fff" stroke="#000" />
  <text x="360" y="55" text-anchor="middle" alignment-baseline="middle" font-size="12">DSP</text>
  <rect x="420" y="30" width="80" height="40" rx="5" ry="5" fill="#fff" stroke="#000" />
  <text x="460" y="55" text-anchor="middle" alignment-baseline="middle" font-size="12">Storage</text>

  <line x1="100" y1="50" x2="120" y2="50" stroke="#000" marker-end="url(#arrow)"/>
  <line x1="200" y1="50" x2="220" y2="50" stroke="#000" marker-end="url(#arrow)"/>
  <line x1="300" y1="50" x2="320" y2="50" stroke="#000" marker-end="url(#arrow)"/>
  <line x1="400" y1="50" x2="420" y2="50" stroke="#000" marker-end="url(#arrow)"/>
</svg>
